<svg xmlns="http://www.w3.org/2000/svg" width="256" height="256"><path fill="#212121" fill-opacity=".016" fill-rule="evenodd" d="M0 128.004v128.004l128.25-.254 128.25-.254.254-127.75L257.008 0H0v128.004m.485.496c0 70.4.119 99.053.265 63.672.146-35.38.146-92.98 0-128C.604 29.153.485 58.1.485 128.5"/><path fill="#212121" fill-opacity=".139" fill-rule="evenodd" d="M108 35.888C99.472 37.742 92.596 43.234 89.081 51c-1.613 3.563-2.042 6.612-2.059 14.642L87 75.784l-18.75.384c-17.655.362-19.076.536-24.336 2.978-6.791 3.153-12 8.187-15.664 15.137L25.5 99.5v49c0 48.855.007 49.013 2.257 53.531 3.716 7.458 7.872 11.661 15.008 15.174l6.693 3.295h157.084l6.693-3.295c7.136-3.513 11.292-7.716 15.008-15.174 2.249-4.516 2.257-4.695 2.257-53.031v-48.5l-2.62-5.586c-3.337-7.117-8.707-12.478-15.794-15.768-5.26-2.442-6.681-2.616-24.336-2.978L169 75.784l-.022-10.142c-.032-14.898-3.669-21.791-14.478-27.443-4.823-2.521-5.673-2.622-24-2.843-10.45-.126-20.575.114-22.5.532m1.2 22.312c-.741.741-1.2 4.378-1.2 9.5V76h40v-8.3c0-5.122-.459-8.759-1.2-9.5-1.688-1.688-35.912-1.688-37.6 0m-59.123 42.389L47 103.178v90.549l2.636 2.637L52.273 199h151.454l2.637-2.636 2.636-2.637v-90.549l-3.077-2.589L202.847 98H53.153l-3.076 2.589m68.947 13.014c-10.897 2.928-18.966 9.777-23.889 20.277-2.237 4.77-2.635 6.984-2.635 14.641 0 8.157.311 9.654 3.25 15.623 3.86 7.84 10.147 13.988 18.075 17.674 4.731 2.2 7.09 2.639 14.175 2.639 7.101 0 9.441-.438 14.218-2.659 7.55-3.51 15.105-10.719 18.52-17.673 2.457-5.004 2.762-6.729 2.762-15.625 0-11.733-1.719-16.528-8.603-23.996-5.343-5.797-11.448-9.425-18.75-11.144-7.052-1.659-10.21-1.615-17.123.243m1.433 22.26c-4.681 2.855-6.861 6.893-6.874 12.735-.021 9.393 5.934 14.768 15.668 14.143 4.697-.301 6.305-.899 8.772-3.263 7.462-7.15 5.904-19.362-3.062-23.998-3.944-2.039-10.829-1.858-14.504.383"/><path fill="#212121" fill-opacity=".283" fill-rule="evenodd" d="M100.882 38.793c-5.975 3.121-11.253 9.282-12.836 14.982-.569 2.049-1.037 8.113-1.04 13.475L87 77l-18.75.001c-18.529.001-18.821.034-24.75 2.844-6.802 3.222-12.693 9.177-15.863 16.033-2.088 4.516-2.137 5.713-2.137 52.122 0 44.322.128 47.831 1.906 52.441 2.289 5.935 8.309 12.718 14.536 16.38L46.5 219.5h163l4.584-2.695c5.769-3.391 11.512-9.699 14.279-15.683 2.063-4.462 2.148-6.142 2.457-48.622.324-44.696-.126-52.324-3.474-58.797-2.754-5.326-8.851-11.018-14.846-13.858-5.929-2.81-6.221-2.843-24.75-2.844L169 77l-.006-9.75c-.003-5.362-.471-11.426-1.04-13.475-1.583-5.7-6.861-11.861-12.836-14.982L149.772 36h-43.544l-5.346 2.793M109.2 58.2c-.752.752-1.2 4.489-1.2 10V77h40v-8.8c0-5.511-.448-9.248-1.2-10-1.688-1.688-35.912-1.688-37.6 0M50.656 99.133C46.271 101.682 46 104.582 46 149.018c0 46.786.006 46.833 6.534 49.561 5.062 2.115 145.87 2.115 150.932 0 6.528-2.728 6.534-2.775 6.534-49.561 0-44.776-.263-47.483-4.85-49.938-2.816-1.507-151.897-1.457-154.494.053m67.338 14.745c-12.003 3.919-20.895 13.048-24.406 25.054-2.077 7.103-2.006 12.548.26 19.828 9.757 31.347 51.913 34.815 66.365 5.458 2.98-6.052 3.287-7.52 3.287-15.697 0-7.657-.398-9.871-2.635-14.641-3.58-7.634-8.617-12.934-16.097-16.936-5.59-2.991-7.241-3.382-15.268-3.619-4.95-.146-10.128.103-11.506.553m5.625 20.125c-9.08 2.817-13.507 14.458-8.369 22.007 5.212 7.659 13.591 9.724 20.964 5.167 9.033-5.583 8.912-20.052-.214-25.501-3.378-2.017-8.877-2.76-12.381-1.673"/><path fill="#212121" fill-opacity=".987" fill-rule="evenodd" d="M105.994 36.899c-8.399 2.673-15.075 9.268-17.438 17.223C87.666 57.12 87 63.105 87 68.105v8.742l-19.25.327c-17.263.292-19.737.551-23.97 2.506-6.586 3.043-13.212 10.185-15.755 16.983-2.039 5.449-2.089 6.944-1.811 53.721L26.5 198.5l2.968 5.359c3.697 6.675 9.271 11.525 16.24 14.133C50.911 219.939 53.421 220 128 220c74.579 0 77.089-.061 82.292-2.008 6.969-2.608 12.543-7.458 16.24-14.133l2.968-5.359.286-48.116c.278-46.777.228-48.272-1.811-53.721-2.543-6.798-9.169-13.94-15.755-16.983-4.233-1.955-6.707-2.214-23.97-2.506L169 76.847v-8.742c0-15.054-4.421-24.069-14.432-29.427-3.767-2.017-5.622-2.193-25.068-2.377-11.55-.11-22.128.159-23.506.598M109 58c-1.686 1.686-2 3.333-2 10.5V77h42v-8.5c0-12.641.236-12.5-21-12.5-15.667 0-17.157.157-19 2M52.388 97.97c-1.161.475-3.074 2.087-4.25 3.582-2.111 2.684-2.138 3.274-2.138 47.183V193.2l3.4 3.4 3.4 3.4h150.4l3.4-3.4 3.4-3.4v-89.168l-2.918-3.266-2.917-3.266-74.833-.196c-41.157-.108-75.782.192-76.944.666m66.112 16.367c-11.222 3.741-19.807 11.522-23.446 21.249-2.784 7.439-2.777 18.408.017 25.873 2.741 7.328 10.414 15.651 17.739 19.242 5.011 2.457 6.824 2.791 15.19 2.795 8.306.003 10.192-.336 15.007-2.701 7.492-3.679 13.671-10.014 17.335-17.771 2.625-5.56 3.056-7.611 3.044-14.5-.012-6.632-.502-9.103-2.825-14.246-3.346-7.411-11.218-15.335-18.27-18.389-6.04-2.617-18.216-3.411-23.791-1.552m2.484 20.515c-10.836 5.758-10.827 21.431.016 27.358 4.341 2.373 11.929 1.955 15.824-.872 4.019-2.917 7.539-10.588 6.761-14.734-2.018-10.759-13.365-16.66-22.601-11.752"/></svg>